<?xml version="1.0" encoding="UTF-8"?>
<svg id="_入れ替え" data-name="入れ替え" xmlns="http://www.w3.org/2000/svg" viewBox="0 0 240 240">
  <g>
    <polygon points="164.53 50 174.53 70 177 70 177 50 164.53 50"/>
    <rect x="203" y="50" width="17" height="20"/>
    <polygon points="135.47 50 20 50 20 70 125.47 70 135.47 50"/>
  </g>
  <polygon points="155 190 145 190 145 71.18 134.47 92.24 125.53 87.76 145.53 47.76 154.47 47.76 174.47 87.76 165.53 92.24 155 71.18 155 190"/>
  <polygon points="194.47 192.24 185.53 192.24 165.53 152.24 174.47 147.76 185 168.82 185 50 195 50 195 168.82 205.53 147.76 214.47 152.24 194.47 192.24"/>
  <g>
    <rect x="163" y="110" width="14" height="20"/>
    <rect x="203" y="110" width="17" height="20"/>
    <rect x="20" y="110" width="117" height="20"/>
  </g>
  <g>
    <polygon points="175.47 190 165.47 170 163 170 163 190 175.47 190"/>
    <polygon points="204.53 190 220 190 220 170 214.53 170 204.53 190"/>
    <rect x="20" y="170" width="117" height="20"/>
  </g>
</svg>